<?xml version="1.0" encoding="utf-8"?>
<!-- Svg Vector Icons : http://www.onlinewebfonts.com/icon -->
<!DOCTYPE svg PUBLIC "-//W3C//DTD SVG 1.1//EN" "http://www.w3.org/Graphics/SVG/1.1/DTD/svg11.dtd">
<svg version="1.1" xmlns="http://www.w3.org/2000/svg" xmlns:xlink="http://www.w3.org/1999/xlink" x="0px" y="0px" viewBox="0 0 1000 1000" enable-background="new 0 0 1000 1000" fill="#fff" xml:space="preserve">
<metadata> Svg Vector Icons : http://www.onlinewebfonts.com/icon </metadata>
<g><g transform="translate(0.000000,511.000000) scale(0.100000,-0.100000)"><path d="M768.1,3444.7c-231.6-61.3-413.5-199.1-541.7-411.6C94.3,2811.1,100,2939.3,100,110c0-2829.3-5.7-2701.1,126.3-2923.2c86.1-143.6,172.3-229.7,308.2-312c233.5-141.7-112.9-132.1,4456.5-132.1c4481.4-1.9,4223-7.6,4439.3,109.1c124.4,67,292.9,235.5,359.9,359.9c114.9,212.5,111,105.3,109.1,2907.8c0,2860,7.6,2697.3-132.1,2925.1c-82.3,135.9-168.5,222.1-312,308.2c-225.9,134,74.6,126.3-4468,124.4C1181.6,3477.2,884.9,3475.3,768.1,3444.7z M3051.9,2232.9c704.5-147.4,966.7-1037.6,455.6-1548.7C3388.8,565.6,3207,466,3071.1,443.1c-105.3-17.2-101.5-38.3,5.7-53.6c122.5-19.1,361.8-145.5,503.5-264.2c449.9-382.9,750.4-1110.3,800.2-1941.1l13.4-218.2H2858.6H1325.2v93.8c0,151.2,36.4,476.7,76.6,675.7C1518.5-694,1813.3-131.2,2135,131c143.6,116.8,384.8,239.3,501.6,258.4c107.2,15.3,111,36.4,5.7,53.6c-229.7,36.4-497.7,246.9-604.9,474.8C1700.4,1629.9,2288.1,2391.8,3051.9,2232.9z M8676.2,1947.7v-306.3H7144.7H5613.3v306.3V2254h1531.4h1531.5V1947.7z M8676.2,110v-306.3H7144.7H5613.3V110v306.3h1531.4h1531.5V110z M8676.2-1727.8v-306.3H7144.7H5613.3v306.3v306.3h1531.4h1531.5V-1727.8z"/></g></g>
</svg>