<?xml version="1.0" encoding="iso-8859-1"?>
<!-- Uploaded to: SVG Repo, www.svgrepo.com, Generator: SVG Repo Mixer Tools -->
<svg fill="#fff" height="800px" width="800px" version="1.1" id="Layer_1" xmlns="http://www.w3.org/2000/svg" xmlns:xlink="http://www.w3.org/1999/xlink" 
	 viewBox="0 0 491.52 491.52" xml:space="preserve">
<g>
	<g>
		<g>
			<path d="M266.24,225.28h16.712c-6.185-17.347-19.845-31.007-37.192-37.192V204.8c0,11.305-9.155,20.48-20.48,20.48
				s-20.48-9.175-20.48-20.48v-16.712c-17.347,6.185-31.007,19.845-37.192,37.192h16.712c11.325,0,20.48,9.175,20.48,20.48
				c0,11.305-9.155,20.48-20.48,20.48h-16.712c6.185,17.347,19.845,31.007,37.192,37.192V286.72c0-11.305,9.155-20.48,20.48-20.48
				s20.48,9.175,20.48,20.48v16.712c17.347-6.185,31.007-19.845,37.192-37.192H266.24c-11.325,0-20.48-9.175-20.48-20.48
				C245.76,234.455,254.915,225.28,266.24,225.28z"/>
			<path d="M450.56,20.48H81.92c-22.589,0-40.96,18.371-40.96,40.96v20.48C18.371,81.92,0,100.291,0,122.88v40.96
				c0,22.589,18.371,40.96,40.96,40.96v81.92C18.371,286.72,0,305.091,0,327.68v40.96c0,22.589,18.371,40.96,40.96,40.96v20.48
				c0,22.589,18.371,40.96,40.96,40.96h368.64c22.589,0,40.96-18.371,40.96-40.96V61.44C491.52,38.851,473.149,20.48,450.56,20.48z
				 M81.92,368.64H61.44H40.96v-40.96h20.48h20.48V368.64z M81.92,163.84H61.44H40.96v-40.96h20.48h20.48V163.84z M225.28,348.16
				c-56.463,0-102.4-45.937-102.4-102.4s45.937-102.4,102.4-102.4c56.463,0,102.4,45.937,102.4,102.4S281.743,348.16,225.28,348.16z
				 M409.6,307.2c11.325,0,20.48,9.175,20.48,20.48s-9.155,20.48-20.48,20.48h-20.48c-22.589,0-40.96-18.371-40.96-40.96V163.84
				c0-22.589,18.371-40.96,40.96-40.96h20.48c11.325,0,20.48,9.175,20.48,20.48c0,11.305-9.155,20.48-20.48,20.48h-20.48V307.2
				H409.6z"/>
		</g>
	</g>
</g>
</svg>